<svg width="23" height="28" viewBox="0 0 23 28" fill="none" xmlns="http://www.w3.org/2000/svg">
<path id="Vector" d="M22.1786 1.75001H16.0179L15.5353 0.727353C15.433 0.50872 15.2756 0.324811 15.0806 0.196315C14.8856 0.0678189 14.6608 -0.000165592 14.4315 9.5882e-06H8.56339C8.33461 -0.000927238 8.11022 0.0668038 7.9159 0.195443C7.72159 0.324082 7.56523 0.508425 7.46473 0.727353L6.98214 1.75001H0.821429C0.603572 1.75001 0.394639 1.8422 0.240591 2.00629C0.0865431 2.17038 0 2.39294 0 2.62501L0 4.37501C0 4.60707 0.0865431 4.82963 0.240591 4.99373C0.394639 5.15782 0.603572 5.25001 0.821429 5.25001H22.1786C22.3964 5.25001 22.6054 5.15782 22.7594 4.99373C22.9135 4.82963 23 4.60707 23 4.37501V2.62501C23 2.39294 22.9135 2.17038 22.7594 2.00629C22.6054 1.8422 22.3964 1.75001 22.1786 1.75001ZM2.73125 25.5391C2.77043 26.2055 3.04656 26.831 3.50342 27.2882C3.96029 27.7454 4.56355 27.9999 5.1904 28H17.8096C18.4365 27.9999 19.0397 27.7454 19.4966 27.2882C19.9534 26.831 20.2296 26.2055 20.2688 25.5391L21.3571 7.00001H1.64286L2.73125 25.5391Z" fill="#828282"/>
</svg>
