<svg width="15" height="15" viewBox="0 0 15 15" fill="none" xmlns="http://www.w3.org/2000/svg">
<path id="Vector" d="M6.1575 9.5625C6.22722 9.6328 6.31017 9.68859 6.40157 9.72667C6.49296 9.76474 6.59099 9.78435 6.69 9.78435C6.78901 9.78435 6.88704 9.76474 6.97843 9.72667C7.06983 9.68859 7.15278 9.6328 7.2225 9.5625L10.2825 6.5025C10.4237 6.36127 10.5031 6.16973 10.5031 5.97C10.5031 5.77027 10.4237 5.57873 10.2825 5.4375C10.1413 5.29627 9.94973 5.21693 9.75 5.21693C9.55027 5.21693 9.35873 5.29627 9.2175 5.4375L6.69 7.9725L5.7825 7.0575C5.64127 6.91627 5.44973 6.83693 5.25 6.83693C5.05027 6.83693 4.85873 6.91627 4.7175 7.0575C4.57627 7.19873 4.49693 7.39027 4.49693 7.59C4.49693 7.78973 4.57627 7.98127 4.7175 8.1225L6.1575 9.5625ZM14.25 0H0.75C0.551088 0 0.360322 0.0790176 0.21967 0.21967C0.0790176 0.360322 0 0.551088 0 0.75V14.25C0 14.4489 0.0790176 14.6397 0.21967 14.7803C0.360322 14.921 0.551088 15 0.75 15H14.25C14.4489 15 14.6397 14.921 14.7803 14.7803C14.921 14.6397 15 14.4489 15 14.25V0.75C15 0.551088 14.921 0.360322 14.7803 0.21967C14.6397 0.0790176 14.4489 0 14.25 0ZM13.5 13.5H1.5V1.5H13.5V13.5Z" fill="#565555"/>
</svg>
