<svg width="38" height="40" viewBox="0 0 38 40" fill="none" xmlns="http://www.w3.org/2000/svg">
<path id="Vector" d="M27.1429 35V38.125C27.1429 39.1605 26.2314 40 25.1071 40H2.03571C0.911406 40 0 39.1605 0 38.125V9.375C0 8.33945 0.911406 7.5 2.03571 7.5H8.14286V30.625C8.14286 33.0374 10.2737 35 12.8929 35H27.1429ZM27.1429 8.125V0H12.8929C11.7685 0 10.8571 0.839453 10.8571 1.875V30.625C10.8571 31.6605 11.7685 32.5 12.8929 32.5H35.9643C37.0886 32.5 38 31.6605 38 30.625V10H29.1786C28.0589 10 27.1429 9.15625 27.1429 8.125ZM37.4038 5.70086L31.8105 0.549141C31.4287 0.197533 30.911 2.59997e-06 30.3711 0L29.8571 0V7.5H38V7.02664C38 6.52938 37.7855 6.05248 37.4038 5.70086Z" fill="#828282"/>
</svg>
