<svg width="22" height="21" viewBox="0 0 22 21" fill="none" xmlns="http://www.w3.org/2000/svg">
<path id="Vector" d="M0.626465 14.6866H13.436C13.5183 14.6867 13.5998 14.6715 13.6758 14.6419C13.7519 14.6124 13.821 14.569 13.8792 14.5143C13.9373 14.4596 13.9835 14.3947 14.0149 14.3232C14.0464 14.2517 14.0626 14.1751 14.0625 14.0978V12.3381C14.0626 12.2608 14.0464 12.1842 14.0149 12.1127C13.9835 12.0413 13.9373 11.9763 13.8792 11.9216C13.821 11.8669 13.7519 11.8236 13.6758 11.794C13.5998 11.7644 13.5183 11.7492 13.436 11.7493H0.626465C0.544178 11.7492 0.462687 11.7644 0.386651 11.794C0.310616 11.8236 0.24153 11.8669 0.183344 11.9216C0.125159 11.9763 0.0790163 12.0413 0.0475562 12.1127C0.0160961 12.1842 -6.40206e-05 12.2608 1.90603e-07 12.3381V14.0978C-6.40206e-05 14.1751 0.0160961 14.2517 0.0475562 14.3232C0.0790163 14.3947 0.125159 14.4596 0.183344 14.5143C0.24153 14.569 0.310616 14.6124 0.386651 14.6419C0.462687 14.6715 0.544178 14.6867 0.626465 14.6866ZM0.626465 2.93733H13.436C13.5183 2.93739 13.5998 2.9222 13.6758 2.89263C13.7519 2.86305 13.821 2.81968 13.8792 2.76499C13.9373 2.7103 13.9835 2.64536 14.0149 2.57389C14.0464 2.50243 14.0626 2.42583 14.0625 2.34848V0.588842C14.0626 0.511497 14.0464 0.4349 14.0149 0.363431C13.9835 0.291962 13.9373 0.227024 13.8792 0.172333C13.821 0.117642 13.7519 0.0742708 13.6758 0.0447001C13.5998 0.0151294 13.5183 -6.01758e-05 13.436 1.79157e-07H0.626465C0.544178 -6.01758e-05 0.462687 0.0151294 0.386651 0.0447001C0.310616 0.0742708 0.24153 0.117642 0.183344 0.172333C0.125159 0.227024 0.0790163 0.291962 0.0475562 0.363431C0.0160961 0.4349 -6.40206e-05 0.511497 1.90603e-07 0.588842V2.34848C-6.40206e-05 2.42583 0.0160961 2.50243 0.0475562 2.57389C0.0790163 2.64536 0.125159 2.7103 0.183344 2.76499C0.24153 2.81968 0.310616 2.86305 0.386651 2.89263C0.462687 2.9222 0.544178 2.93739 0.626465 2.93733ZM21.0938 5.87465H0.78125C0.57405 5.87465 0.375336 5.95202 0.228823 6.08973C0.0823102 6.22745 1.90603e-07 6.41423 1.90603e-07 6.60898V8.07764C1.90603e-07 8.2724 0.0823102 8.45918 0.228823 8.5969C0.375336 8.73461 0.57405 8.81198 0.78125 8.81198H21.0938C21.301 8.81198 21.4997 8.73461 21.6462 8.5969C21.7927 8.45918 21.875 8.2724 21.875 8.07764V6.60898C21.875 6.41423 21.7927 6.22745 21.6462 6.08973C21.4997 5.95202 21.301 5.87465 21.0938 5.87465ZM21.0938 17.624H0.78125C0.57405 17.624 0.375336 17.7013 0.228823 17.839C0.0823102 17.9767 1.90603e-07 18.1635 1.90603e-07 18.3583V19.8269C1.90603e-07 20.0217 0.0823102 20.2085 0.228823 20.3462C0.375336 20.4839 0.57405 20.5613 0.78125 20.5613H21.0938C21.301 20.5613 21.4997 20.4839 21.6462 20.3462C21.7927 20.2085 21.875 20.0217 21.875 19.8269V18.3583C21.875 18.1635 21.7927 17.9767 21.6462 17.839C21.4997 17.7013 21.301 17.624 21.0938 17.624Z" fill="#878787"/>
</svg>
