<svg width="25" height="24" viewBox="0 0 25 24" fill="none" xmlns="http://www.w3.org/2000/svg">
<path id="Vector" d="M24.0234 11.8062C24.0357 18.0774 18.6385 23.2054 12.0204 23.2098C9.16208 23.2117 6.53655 22.2675 4.4733 20.6896C3.93679 20.2793 3.89669 19.5174 4.38423 19.0554L4.92994 18.5383C5.34691 18.1432 6.01259 18.0999 6.47456 18.4472C7.99467 19.5903 9.91843 20.2725 12.0117 20.2725C16.9377 20.2725 20.9236 16.4948 20.9236 11.8277C20.9236 7.15987 16.937 3.38288 12.0117 3.38288C9.64744 3.38288 7.50011 4.25348 5.9057 5.67455L8.36393 8.00394C8.85215 8.46657 8.50638 9.25753 7.816 9.25753H0.77495C0.346935 9.25753 0 8.92878 0 8.5232V1.8512C0 1.19701 0.834718 0.869358 1.32294 1.33194L3.71424 3.5979C5.87068 1.64509 8.79335 0.445557 12.0117 0.445557C18.638 0.445557 24.0112 5.52988 24.0234 11.8062ZM15.2611 15.422L15.7369 14.8424C16.131 14.3621 16.0397 13.6701 15.5329 13.2966L13.5616 11.8437V7.05454C13.5616 6.44619 13.0412 5.95304 12.3992 5.95304H11.6242C10.9822 5.95304 10.4618 6.44619 10.4618 7.05454V13.2803L13.6299 15.6152C14.1366 15.9887 14.8669 15.9022 15.2611 15.422Z" fill="#878787"/>
</svg>
