<?xml version="1.0" standalone="no"?>
<svg version="1.0" xmlns="http://www.w3.org/2000/svg"
 width="256.000000pt" height="256.000000pt" viewBox="0 0 256.000000 256.000000"
 preserveAspectRatio="xMidYMid meet">

<g transform="translate(0.000000,256.000000) scale(0.100000,-0.100000)"
fill="#000000" stroke="none">
<path d="M561 2544 c-123 -33 -247 -128 -303 -230 -15 -27 -36 -83 -47 -124
-20 -72 -21 -98 -21 -700 0 -667 3 -712 51 -860 45 -136 106 -237 208 -344
117 -122 269 -212 436 -258 77 -21 101 -22 568 -26 538 -4 539 -4 660 60 113
61 210 189 237 314 7 34 10 272 8 735 -4 673 -4 685 -26 764 -91 325 -330 564
-657 656 -77 22 -96 23 -570 25 -408 3 -499 1 -544 -12z m1005 -289 c241 -46
438 -239 489 -481 21 -98 22 -1318 1 -1367 -17 -42 -76 -93 -123 -107 -26 -8
-176 -10 -488 -8 l-450 3 -85 31 c-47 16 -111 47 -142 68 -122 80 -224 222
-265 366 -17 60 -18 115 -18 705 0 352 3 652 8 667 11 40 66 98 112 119 37 17
75 19 462 19 332 0 438 -3 499 -15z"/>
<path d="M890 1952 c-19 -11 -48 -36 -65 -56 l-30 -38 -3 -364 -3 -364 39 -41
c33 -36 45 -42 90 -47 41 -3 58 0 87 18 66 41 69 57 75 323 l5 239 33 29 c32
29 33 29 157 29 137 0 173 9 214 54 19 20 26 40 29 85 4 58 3 60 -36 103 l-41
43 -258 3 c-237 2 -261 1 -293 -16z"/>
<path d="M1575 1506 c-41 -18 -73 -56 -85 -97 -6 -19 -10 -132 -10 -252 l0
-219 -30 -28 c-29 -27 -33 -28 -168 -32 -107 -3 -144 -7 -170 -21 -96 -52 -96
-202 0 -254 28 -15 64 -18 254 -21 247 -4 285 2 341 51 62 55 63 60 63 439 0
322 -1 345 -20 375 -37 61 -114 87 -175 59z"/>
</g>
</svg>
