<svg width="42" height="38" viewBox="0 0 42 38" fill="none" xmlns="http://www.w3.org/2000/svg">
<path id="Vector" d="M26.0683 19L41.6702 4.88317C42.1099 4.48536 42.1099 3.84071 41.6702 3.44375C38.5952 0.661607 33.6086 0.661607 30.5336 3.44375L19.7045 13.2423L17.3738 11.1337C17.7779 10.2074 18.0001 9.19888 18.0001 8.14286C18.0001 3.64562 13.9707 0 9.00005 0C4.0294 0 0 3.64562 0 8.14286C0 12.6401 4.0294 16.2857 9.00005 16.2857C9.42568 16.2857 9.84287 16.2586 10.2526 16.2068L13.3398 19L10.2526 21.7932C9.84287 21.7414 9.42474 21.7143 9.00005 21.7143C4.0294 21.7143 0 25.3599 0 29.8571C0 34.3544 4.0294 38 9.00005 38C13.9707 38 18.0001 34.3544 18.0001 29.8571C18.0001 28.8011 17.7779 27.7926 17.3738 26.8663L19.7045 24.7577L30.5336 34.5562C33.6086 37.3384 38.5952 37.3384 41.6702 34.5562C42.1099 34.1593 42.1099 33.5146 41.6702 33.1168L26.0683 19ZM9.00005 10.8571C7.34629 10.8571 6.00003 9.63911 6.00003 8.14286C6.00003 6.64661 7.34629 5.42857 9.00005 5.42857C10.6538 5.42857 12.0001 6.64661 12.0001 8.14286C12.0001 9.63911 10.6538 10.8571 9.00005 10.8571ZM9.00005 32.5714C7.34629 32.5714 6.00003 31.3534 6.00003 29.8571C6.00003 28.3609 7.34629 27.1429 9.00005 27.1429C10.6538 27.1429 12.0001 28.3609 12.0001 29.8571C12.0001 31.3534 10.6538 32.5714 9.00005 32.5714Z" fill="#828282"/>
</svg>
