<svg width="23" height="21" viewBox="0 0 23 21" fill="none" xmlns="http://www.w3.org/2000/svg">
<path id="Vector" d="M15.45 10.4281L21.6539 4.81658C22.4153 4.12797 22.4153 3.01149 21.6539 2.32231L20.2752 1.07518C19.5138 0.386562 18.2795 0.386562 17.5176 1.07518L11.3136 6.68672L5.1097 1.07518C4.34839 0.386562 3.11405 0.386562 2.35212 1.07518L0.973327 2.32231C0.212016 3.01093 0.212016 4.12741 0.973327 4.81658L7.17726 10.4281L0.973327 16.0397C0.212016 16.7283 0.212016 17.8448 0.973327 18.5339L2.35212 19.7811C3.11343 20.4697 4.34839 20.4697 5.1097 19.7811L11.3136 14.1695L17.5176 19.7811C18.2789 20.4697 19.5138 20.4697 20.2752 19.7811L21.6539 18.5339C22.4153 17.8453 22.4153 16.7289 21.6539 16.0397L15.45 10.4281Z" fill="#e1e1e1"/>
</svg>
