<svg width="38" height="41" viewBox="0 0 38 41" fill="none" xmlns="http://www.w3.org/2000/svg">
<path id="Vector" d="M33.25 5.125H25.3333C25.3333 2.29824 22.4932 0 19 0C15.5068 0 12.6667 2.29824 12.6667 5.125H4.75C2.1276 5.125 0 6.84668 0 8.96875V37.1562C0 39.2783 2.1276 41 4.75 41H33.25C35.8724 41 38 39.2783 38 37.1562V8.96875C38 6.84668 35.8724 5.125 33.25 5.125ZM19 3.20312C20.3161 3.20312 21.375 4.05996 21.375 5.125C21.375 6.19004 20.3161 7.04688 19 7.04688C17.6839 7.04688 16.625 6.19004 16.625 5.125C16.625 4.05996 17.6839 3.20312 19 3.20312ZM30.9938 21.7652L16.8427 33.1203C16.3776 33.4967 15.6255 33.4887 15.1604 33.1123L6.98646 26.4418C6.52135 26.0654 6.53125 25.4568 6.99635 25.0805L9.80677 22.8223C10.2719 22.4459 11.024 22.4539 11.4891 22.8303L16.0411 26.5459L26.5307 18.1217C26.9958 17.7453 27.7479 17.7533 28.213 18.1297L31.0036 20.4039C31.4687 20.7883 31.4589 21.3889 30.9938 21.7652Z" fill="#828282"/>
</svg>
