<svg width="38" height="36" viewBox="0 0 38 36" fill="none" xmlns="http://www.w3.org/2000/svg">
<path id="Vector" d="M35.2857 14.1429H23.0714V2.57143C23.0714 1.15152 21.8559 0 20.3571 0H17.6429C16.1441 0 14.9286 1.15152 14.9286 2.57143V14.1429H2.71429C1.21549 14.1429 0 15.2944 0 16.7143V19.2857C0 20.7056 1.21549 21.8571 2.71429 21.8571H14.9286V33.4286C14.9286 34.8485 16.1441 36 17.6429 36H20.3571C21.8559 36 23.0714 34.8485 23.0714 33.4286V21.8571H35.2857C36.7845 21.8571 38 20.7056 38 19.2857V16.7143C38 15.2944 36.7845 14.1429 35.2857 14.1429Z" fill="#828282"/>
</svg>
