<svg width="20" height="25" viewBox="0 0 20 25" fill="none" xmlns="http://www.w3.org/2000/svg">
<g id="more-vertical">
<path id="Vector" d="M9.86318 14.0917C10.7595 14.0917 11.4861 13.1904 11.4861 12.0786C11.4861 10.9668 10.7595 10.0654 9.86318 10.0654C8.96685 10.0654 8.24023 10.9668 8.24023 12.0786C8.24023 13.1904 8.96685 14.0917 9.86318 14.0917Z" fill="#4A3F3F"/>
<path id="Vector_2" d="M9.86318 7.04609C10.7595 7.04609 11.4861 6.14477 11.4861 5.03293C11.4861 3.9211 10.7595 3.01978 9.86318 3.01978C8.96685 3.01978 8.24023 3.9211 8.24023 5.03293C8.24023 6.14477 8.96685 7.04609 9.86318 7.04609Z" fill="#4A3F3F"/>
<path id="Vector_3" d="M9.86318 21.1386C10.7595 21.1386 11.4861 20.2373 11.4861 19.1255C11.4861 18.0136 10.7595 17.1123 9.86318 17.1123C8.96685 17.1123 8.24023 18.0136 8.24023 19.1255C8.24023 20.2373 8.96685 21.1386 9.86318 21.1386Z" fill="#4A3F3F"/>
</g>
</svg>
