<svg width="25" height="20" viewBox="0 0 25 20" fill="none" xmlns="http://www.w3.org/2000/svg">
<path id="Vector" d="M7.5 9.86941C9.91797 9.86941 11.875 7.66201 11.875 4.93471C11.875 2.2074 9.91797 0 7.5 0C5.08203 0 3.125 2.2074 3.125 4.93471C3.125 7.66201 5.08203 9.86941 7.5 9.86941ZM10.5 11.2793H10.1758C9.36328 11.7199 8.46094 11.9843 7.5 11.9843C6.53906 11.9843 5.64062 11.7199 4.82422 11.2793H4.5C2.01562 11.2793 0 13.5528 0 16.355V17.624C0 18.7915 0.839844 19.7388 1.875 19.7388H13.125C14.1602 19.7388 15 18.7915 15 17.624V16.355C15 13.5528 12.9844 11.2793 10.5 11.2793ZM18.75 9.86941C20.8203 9.86941 22.5 7.97484 22.5 5.63966C22.5 3.30449 20.8203 1.40992 18.75 1.40992C16.6797 1.40992 15 3.30449 15 5.63966C15 7.97484 16.6797 9.86941 18.75 9.86941ZM20.625 11.2793H20.4766C19.9336 11.4908 19.3594 11.6318 18.75 11.6318C18.1406 11.6318 17.5664 11.4908 17.0234 11.2793H16.875C16.0781 11.2793 15.3438 11.5393 14.6992 11.9579C15.6523 13.1166 16.25 14.6543 16.25 16.355V18.0469C16.25 18.1439 16.2305 18.2364 16.2266 18.3289H23.125C24.1602 18.3289 25 17.3816 25 16.214C25 13.4867 23.043 11.2793 20.625 11.2793Z" fill="#878787"/>
</svg>
