<svg width="21" height="24" viewBox="0 0 21 24" fill="none" xmlns="http://www.w3.org/2000/svg">
<path id="Vector" d="M17.1631 2.91897C15.2783 1.03724 12.793 0 10.1611 0C4.56055 0 0 4.41517 0 9.84004C0 13.2868 2.82227 17.1742 4.03809 18.6841C5.8252 20.9055 8.50098 23.4986 10.1611 23.4986C12.1924 23.4986 15.6738 19.1752 16.0645 18.6796C17.2656 17.1604 20.0684 13.2501 20.0684 9.84004C20.0684 7.24693 19.0381 4.78692 17.1631 2.91897ZM10.1611 22.6679C8.08594 22.6679 0.883789 14.9895 0.883789 9.84463C0.883789 4.91543 4.98047 0.835302 10.1611 0.835302C15.083 0.835302 19.1797 4.92002 19.1797 9.84463C19.1846 14.9895 11.9824 22.6679 10.1611 22.6679ZM15.6006 9.49123C15.6006 12.2037 13.1055 14.526 10.1904 14.526C5.27832 14.526 2.83203 9.56008 5.6543 6.18215V6.20051C5.6543 7.32496 6.63574 8.23828 7.8418 8.23828C9.04785 8.23828 10.0293 7.32496 10.0293 6.20051C10.0293 5.36521 9.4873 4.64924 8.71582 4.33256C12.4561 3.45136 15.6006 6.13626 15.6006 9.49123Z" fill="#878787"/>
</svg>
